<svg width="1600" height="700" viewBox="0 0 1600 700" xmlns="http://www.w3.org/2000/svg" role="img" aria-label="DocuMind divine ruins world">
  <defs>
    <linearGradient id="bg" x1="0" y1="0" x2="1" y2="1">
      <stop offset="0%" stop-color="#111D4A"/>
      <stop offset="55%" stop-color="#3558B7"/>
      <stop offset="100%" stop-color="#0A1431"/>
    </linearGradient>
    <linearGradient id="moon" x1="0" y1="0" x2="1" y2="1">
      <stop offset="0%" stop-color="#E9D5FF"/>
      <stop offset="100%" stop-color="#A5B4FC"/>
    </linearGradient>
  </defs>
  <rect width="1600" height="700" fill="url(#bg)"/>
  <circle cx="1230" cy="135" r="84" fill="url(#moon)" opacity="0.65"/>
  <g fill="#1A2859">
    <rect x="0" y="450" width="1600" height="250"/>
    <rect x="180" y="250" width="35" height="200"/>
    <rect x="260" y="225" width="35" height="225"/>
    <rect x="340" y="270" width="35" height="180"/>
    <rect x="420" y="240" width="35" height="210"/>
    <rect x="500" y="260" width="35" height="190"/>
  </g>
  <g fill="#7AA2FF" opacity="0.55">
    <rect x="170" y="215" width="380" height="12"/>
    <rect x="980" y="295" width="230" height="155" rx="12"/>
    <rect x="1290" y="230" width="160" height="220" rx="12"/>
  </g>
  <g fill="#C4B5FD" opacity="0.3">
    <circle cx="260" cy="110" r="3"/>
    <circle cx="350" cy="78" r="2"/>
    <circle cx="470" cy="96" r="3"/>
    <circle cx="560" cy="70" r="2"/>
    <circle cx="680" cy="90" r="3"/>
    <circle cx="760" cy="74" r="2"/>
    <circle cx="920" cy="84" r="3"/>
  </g>
</svg>
