<svg width="1600" height="700" viewBox="0 0 1600 700" xmlns="http://www.w3.org/2000/svg" role="img" aria-label="EcoVision forest world">
  <defs>
    <linearGradient id="bg" x1="0" y1="0" x2="1" y2="1">
      <stop offset="0%" stop-color="#0F2A14"/>
      <stop offset="55%" stop-color="#1D6B3E"/>
      <stop offset="100%" stop-color="#0A1710"/>
    </linearGradient>
    <linearGradient id="mist" x1="0" y1="0" x2="0" y2="1">
      <stop offset="0%" stop-color="#94F4B933"/>
      <stop offset="100%" stop-color="#94F4B900"/>
    </linearGradient>
  </defs>
  <rect width="1600" height="700" fill="url(#bg)"/>
  <rect x="0" y="0" width="1600" height="220" fill="url(#mist)"/>
  <g fill="#0A2515">
    <rect x="40" y="330" width="340" height="220" rx="16"/>
    <rect x="440" y="290" width="260" height="260" rx="16"/>
    <rect x="760" y="350" width="280" height="200" rx="16"/>
    <rect x="1100" y="300" width="420" height="250" rx="16"/>
  </g>
  <g fill="#2EC27E" opacity="0.7">
    <rect x="45" y="320" width="330" height="16"/>
    <rect x="445" y="280" width="250" height="16"/>
    <rect x="765" y="340" width="270" height="16"/>
    <rect x="1105" y="290" width="410" height="16"/>
  </g>
  <g fill="#A7F3D0" opacity="0.2">
    <circle cx="240" cy="180" r="120"/>
    <circle cx="760" cy="140" r="95"/>
    <circle cx="1290" cy="170" r="130"/>
  </g>
</svg>
