<svg width="1600" height="700" viewBox="0 0 1600 700" xmlns="http://www.w3.org/2000/svg" role="img" aria-label="JobLink glacier world">
  <defs>
    <linearGradient id="bg" x1="0" y1="0" x2="1" y2="1">
      <stop offset="0%" stop-color="#0A213B"/>
      <stop offset="55%" stop-color="#1B7FA5"/>
      <stop offset="100%" stop-color="#081424"/>
    </linearGradient>
    <linearGradient id="ice" x1="0" y1="0" x2="0" y2="1">
      <stop offset="0%" stop-color="#CFFAFE"/>
      <stop offset="100%" stop-color="#38BDF8"/>
    </linearGradient>
  </defs>
  <rect width="1600" height="700" fill="url(#bg)"/>
  <g fill="#0B2E4E">
    <rect x="0" y="420" width="1600" height="280"/>
    <rect x="180" y="350" width="220" height="90" rx="14"/>
    <rect x="530" y="320" width="260" height="120" rx="14"/>
    <rect x="930" y="340" width="220" height="100" rx="14"/>
  </g>
  <g fill="url(#ice)">
    <rect x="185" y="338" width="210" height="16" rx="8"/>
    <rect x="535" y="308" width="250" height="16" rx="8"/>
    <rect x="935" y="328" width="210" height="16" rx="8"/>
    <rect x="0" y="408" width="1600" height="14"/>
  </g>
  <g fill="#E0F2FE" opacity="0.85">
    <polygon points="112,0 172,0 142,95"/>
    <polygon points="500,0 570,0 535,115"/>
    <polygon points="860,0 930,0 895,105"/>
    <polygon points="1330,0 1390,0 1360,90"/>
  </g>
</svg>
